<?xml version="1.0" encoding="UTF-8"?>
<svg xmlns="http://www.w3.org/2000/svg" xmlns:xlink="http://www.w3.org/1999/xlink" width="32px" height="10px" viewBox="0 0 32 10" version="1.1">
<g id="surface1">
<path style=" stroke:none;fill-rule:nonzero;fill:rgb(91.764706%,12.156863%,17.647059%);fill-opacity:1;" d="M 0 0 C 5.246094 0 5.246094 0 5.96875 0.722656 C 6.507812 1.308594 6.703125 1.941406 6.683594 2.726562 C 6.652344 3.382812 6.332031 3.953125 5.867188 4.402344 C 5.550781 4.675781 5.0625 4.988281 4.636719 4.960938 C 4.636719 4.988281 4.636719 5.011719 4.636719 5.039062 C 4.675781 5.039062 4.71875 5.042969 4.757812 5.046875 C 5.140625 5.09375 5.46875 5.296875 5.765625 5.53125 C 5.789062 5.546875 5.8125 5.566406 5.839844 5.582031 C 6.277344 5.929688 6.597656 6.527344 6.671875 7.082031 C 6.722656 7.832031 6.609375 8.539062 6.109375 9.128906 C 5.664062 9.617188 5.164062 9.871094 4.523438 10 C 3.03125 10 1.539062 10 0 10 C 0 6.699219 0 3.398438 0 0 Z M 0 0 "/>
<path style=" stroke:none;fill-rule:nonzero;fill:rgb(91.764706%,12.156863%,17.647059%);fill-opacity:1;" d="M 7.386719 0 C 12.601562 0 12.601562 0 13.292969 0.671875 C 13.324219 0.699219 13.351562 0.726562 13.378906 0.757812 C 13.40625 0.785156 13.433594 0.808594 13.460938 0.835938 C 13.910156 1.304688 14.097656 1.9375 14.097656 2.574219 C 14.054688 3.316406 13.757812 3.921875 13.230469 4.433594 C 12.773438 4.816406 12.238281 5.011719 11.648438 5 C 11.894531 5.425781 12.144531 5.851562 12.410156 6.269531 C 12.648438 6.648438 12.882812 7.03125 13.113281 7.410156 C 13.242188 7.617188 13.367188 7.824219 13.492188 8.03125 C 13.632812 8.261719 13.777344 8.492188 13.917969 8.722656 C 13.957031 8.789062 14 8.855469 14.039062 8.921875 C 14.089844 9.003906 14.140625 9.085938 14.191406 9.171875 C 14.328125 9.398438 14.46875 9.621094 14.613281 9.839844 C 14.660156 9.925781 14.660156 9.925781 14.660156 10 C 12.261719 10 9.859375 10 7.386719 10 C 7.386719 6.699219 7.386719 3.398438 7.386719 0 Z M 7.386719 0 "/>
<path style=" stroke:none;fill-rule:nonzero;fill:rgb(91.764706%,12.156863%,17.647059%);fill-opacity:1;" d="M 31.652344 1.140625 C 31.679688 1.164062 31.707031 1.1875 31.734375 1.210938 C 31.761719 1.234375 31.789062 1.257812 31.816406 1.28125 C 31.878906 1.332031 31.941406 1.386719 32 1.4375 C 31.945312 1.5625 31.882812 1.644531 31.789062 1.738281 C 31.761719 1.765625 31.730469 1.792969 31.703125 1.824219 C 31.65625 1.871094 31.65625 1.871094 31.609375 1.917969 C 31.574219 1.949219 31.542969 1.984375 31.507812 2.015625 C 31.417969 2.105469 31.328125 2.195312 31.238281 2.285156 C 31.144531 2.382812 31.050781 2.476562 30.957031 2.570312 C 30.78125 2.746094 30.601562 2.925781 30.425781 3.101562 C 30.222656 3.304688 30.019531 3.507812 29.816406 3.710938 C 29.402344 4.128906 28.988281 4.546875 28.570312 4.960938 C 28.625 5.085938 28.6875 5.164062 28.78125 5.261719 C 28.808594 5.289062 28.839844 5.316406 28.867188 5.347656 C 28.898438 5.378906 28.929688 5.410156 28.960938 5.441406 C 28.996094 5.472656 29.027344 5.507812 29.0625 5.539062 C 29.152344 5.628906 29.242188 5.71875 29.332031 5.808594 C 29.425781 5.902344 29.519531 5.996094 29.613281 6.09375 C 29.789062 6.269531 29.96875 6.449219 30.144531 6.625 C 30.347656 6.828125 30.550781 7.03125 30.75 7.234375 C 31.167969 7.652344 31.582031 8.066406 32 8.484375 C 31.722656 9.085938 30.746094 9.5 30.15625 9.726562 C 28.828125 10.179688 27.414062 10.085938 26.15625 9.46875 C 25.375 9.066406 24.707031 8.425781 24.234375 7.6875 C 24.210938 7.652344 24.1875 7.613281 24.160156 7.574219 C 23.984375 7.285156 23.859375 6.984375 23.746094 6.667969 C 23.722656 6.605469 23.722656 6.605469 23.703125 6.546875 C 23.28125 5.289062 23.425781 3.894531 24.003906 2.710938 C 24.230469 2.265625 24.53125 1.875 24.875 1.515625 C 24.90625 1.484375 24.933594 1.453125 24.960938 1.421875 C 25.46875 0.886719 26.109375 0.515625 26.796875 0.265625 C 26.859375 0.242188 26.859375 0.242188 26.917969 0.222656 C 28.535156 -0.324219 30.351562 0.0625 31.652344 1.140625 Z M 31.652344 1.140625 "/>
<path style=" stroke:none;fill-rule:nonzero;fill:rgb(91.764706%,12.156863%,17.647059%);fill-opacity:1;" d="M 20.578125 0.113281 C 20.605469 0.121094 20.632812 0.125 20.660156 0.132812 C 21.523438 0.339844 22.332031 0.796875 22.953125 1.4375 C 22.902344 1.5625 22.835938 1.644531 22.742188 1.738281 C 22.714844 1.765625 22.6875 1.792969 22.65625 1.824219 C 22.609375 1.871094 22.609375 1.871094 22.5625 1.917969 C 22.53125 1.949219 22.496094 1.984375 22.464844 2.015625 C 22.375 2.105469 22.285156 2.195312 22.195312 2.285156 C 22.101562 2.382812 22.007812 2.476562 21.914062 2.570312 C 21.734375 2.746094 21.558594 2.925781 21.378906 3.101562 C 21.175781 3.304688 20.972656 3.507812 20.773438 3.710938 C 20.355469 4.128906 19.941406 4.546875 19.523438 4.960938 C 19.578125 5.085938 19.640625 5.164062 19.734375 5.261719 C 19.765625 5.289062 19.792969 5.316406 19.820312 5.347656 C 19.851562 5.378906 19.882812 5.410156 19.917969 5.441406 C 19.949219 5.472656 19.980469 5.507812 20.015625 5.539062 C 20.105469 5.628906 20.195312 5.71875 20.285156 5.808594 C 20.378906 5.902344 20.472656 5.996094 20.566406 6.09375 C 20.742188 6.269531 20.921875 6.449219 21.097656 6.625 C 21.300781 6.828125 21.503906 7.03125 21.707031 7.234375 C 22.121094 7.652344 22.539062 8.066406 22.953125 8.484375 C 22.65625 9.117188 21.683594 9.527344 21.066406 9.757812 C 20.183594 10.066406 19.1875 10.101562 18.28125 9.886719 C 18.253906 9.878906 18.226562 9.875 18.199219 9.867188 C 16.957031 9.566406 15.882812 8.753906 15.199219 7.671875 C 14.921875 7.214844 14.722656 6.730469 14.585938 6.210938 C 14.574219 6.167969 14.5625 6.125 14.550781 6.082031 C 14.371094 5.3125 14.40625 4.390625 14.625 3.636719 C 14.632812 3.609375 14.640625 3.582031 14.648438 3.554688 C 14.839844 2.902344 15.164062 2.296875 15.605469 1.78125 C 15.621094 1.761719 15.636719 1.742188 15.652344 1.722656 C 16.472656 0.757812 17.648438 0.128906 18.90625 0.0078125 C 19.46875 -0.0351562 20.027344 -0.015625 20.578125 0.113281 Z M 20.578125 0.113281 "/>
</g>
</svg>
